<svg width="32" height="32" viewBox="0 0 32 32" fill="none" xmlns="http://www.w3.org/2000/svg">
<path d="M10.6667 2.66663V6.66663" stroke="white" stroke-width="1.5" stroke-linecap="round" stroke-linejoin="round"/>
<path d="M21.3333 2.66663V6.66663" stroke="white" stroke-width="1.5" stroke-linecap="round" stroke-linejoin="round"/>
<path d="M4.66669 12.12H27.3334" stroke="white" stroke-width="1.5" stroke-linecap="round" stroke-linejoin="round"/>
<path d="M20.8934 25.7467C20.7067 25.9334 20.5334 26.28 20.4934 26.5334L20.24 28.3334C20.1467 28.9867 20.6 29.4401 21.2534 29.3467L23.0534 29.0934C23.3067 29.0534 23.6667 28.88 23.84 28.6934L28.56 23.9734C29.3734 23.1601 29.76 22.2134 28.56 21.0134C27.3734 19.8267 26.4267 20.2134 25.6134 21.0267L20.8934 25.7467Z" stroke="white" stroke-width="1.5" stroke-linecap="round" stroke-linejoin="round"/>
<path d="M24.9334 21.7067C25.3334 23.1467 26.4534 24.2667 27.8934 24.6667" stroke="white" stroke-width="1.5" stroke-linecap="round" stroke-linejoin="round"/>
<path d="M16 29.3333H10.6667C6 29.3333 4 26.6666 4 22.6666V11.3333C4 7.33329 6 4.66663 10.6667 4.66663H21.3333C26 4.66663 28 7.33329 28 11.3333V16" stroke="white" stroke-width="1.5" stroke-linecap="round" stroke-linejoin="round"/>
<path d="M15.994 18.2666H16.006" stroke="white" stroke-width="2" stroke-linecap="round" stroke-linejoin="round"/>
<path d="M11.0591 18.2666H11.071" stroke="white" stroke-width="2" stroke-linecap="round" stroke-linejoin="round"/>
<path d="M11.0591 22.2666H11.071" stroke="white" stroke-width="2" stroke-linecap="round" stroke-linejoin="round"/>
</svg>
