<svg width="20" height="20" viewBox="0 0 20 20" fill="none" xmlns="http://www.w3.org/2000/svg">
<mask id="mask0_4181_26498" style="mask-type:alpha" maskUnits="userSpaceOnUse" x="0" y="0" width="20" height="20">
<rect width="20" height="20" fill="#C4C4C4"/>
</mask>
<g mask="url(#mask0_4181_26498)">
<path d="M17.9999 9.99435C17.9692 14.4306 14.4497 17.9938 10.0039 18C5.57913 18.0061 2.00615 14.4657 2.00001 10.0101C1.99387 5.57913 5.53702 2.0238 9.98811 2.00011C14.3866 1.97729 17.9902 5.58878 17.9999 9.99435ZM16.6147 10.2786C16.8069 6.87773 14.1322 3.48471 10.1416 3.36802C6.84498 3.27238 3.50096 5.84324 3.36586 9.83465C3.25358 13.1399 5.83703 16.5119 9.85038 16.6338C13.1795 16.7347 16.4568 14.1314 16.6147 10.2786Z" fill="#006F5B"/>
<path d="M10.9548 9.99206C11.339 10.3773 11.6961 10.7317 12.0505 11.0897C12.2689 11.3108 12.3242 11.6346 12.1978 11.897C12.0794 12.1418 11.7706 12.3155 11.4829 12.2514C11.3294 12.2172 11.1697 12.126 11.0539 12.0172C10.6986 11.682 10.3627 11.3258 10.003 10.9607C9.63281 11.3328 9.27928 11.689 8.924 12.0426C8.69416 12.2707 8.39327 12.3313 8.12133 12.2084C7.86956 12.0953 7.6871 11.8004 7.74675 11.5074C7.78096 11.3415 7.88184 11.1696 7.99939 11.0432C8.3266 10.6905 8.6775 10.3597 9.0433 9.99645C8.6775 9.6367 8.32748 9.28749 7.97044 8.94441C7.76868 8.74963 7.6871 8.51886 7.75114 8.24949C7.81167 7.99592 7.9836 7.83271 8.23274 7.76164C8.49503 7.68706 8.72399 7.76515 8.9126 7.95204C9.27051 8.30653 9.62316 8.66539 10.0074 9.05322C10.36 8.69259 10.6995 8.34338 11.0408 7.99504C11.3504 7.67829 11.768 7.64758 12.047 7.92046C12.3496 8.21703 12.3321 8.63731 12.0013 8.96196C11.6575 9.29977 11.3145 9.63846 10.9548 9.99206Z" fill="#006F5B"/>
</g>
</svg>
