<svg width="76" height="76" viewBox="0 0 76 76" fill="none" xmlns="http://www.w3.org/2000/svg">
<path d="M32.7749 41.8949V34.0734C32.7749 31.1917 35.1182 28.8483 37.9999 28.8483C40.8816 28.8483 43.2249 31.1917 43.2249 34.0734V41.8949C43.2249 44.7766 40.8816 47.12 37.9999 47.12C35.1182 47.12 32.7749 44.7766 32.7749 41.8949Z" stroke="white" stroke-width="2.5" stroke-linecap="round"/>
<path d="M53.77 42.6547C53.1367 50.8247 46.2967 57.2215 38 57.2215C29.26 57.2215 22.1667 50.1282 22.1667 41.3882V34.6115C22.1667 25.8715 29.26 18.7781 38 18.7781C46.2017 18.7781 52.9467 25.0164 53.7384 32.9964" stroke="white" stroke-width="2.5" stroke-linecap="round"/>
<path d="M47.5 6.33333H53.8333C63.3333 6.33333 69.6667 12.6667 69.6667 22.1667V28.5" stroke="white" stroke-width="2.5" stroke-linecap="round" stroke-linejoin="round"/>
<path d="M6.33331 28.5V22.1667C6.33331 12.6667 12.6666 6.33333 22.1666 6.33333H28.5" stroke="white" stroke-width="2.5" stroke-linecap="round" stroke-linejoin="round"/>
<path d="M47.5 69.6667H53.8333C63.3333 69.6667 69.6667 63.3333 69.6667 53.8333V47.5" stroke="white" stroke-width="2.5" stroke-linecap="round" stroke-linejoin="round"/>
<path d="M6.33331 47.5V53.8333C6.33331 63.3333 12.6666 69.6667 22.1666 69.6667H28.5" stroke="white" stroke-width="2.5" stroke-linecap="round" stroke-linejoin="round"/>
</svg>
