<svg width="21" height="21" viewBox="0 0 21 21" fill="none" xmlns="http://www.w3.org/2000/svg">
<path d="M13.125 19.25C17.5 19.25 19.25 17.5 19.25 13.125V7.875C19.25 3.5 17.5 1.75 13.125 1.75H7.875C3.5 1.75 1.75 3.5 1.75 7.875V13.125C1.75 17.5 3.5 19.25 7.875 19.25H13.125Z" stroke="#757575" stroke-width="1.5" stroke-linecap="round" stroke-linejoin="round"/>
<path d="M10.5876 12.8101L8.3213 15.0676C8.1638 15.2338 7.84005 15.3388 7.6038 15.3038L6.5538 15.1638C6.2038 15.1201 5.8888 14.7876 5.8363 14.4463L5.6963 13.3963C5.6613 13.1688 5.77505 12.8451 5.93255 12.6788L8.19005 10.4213C7.80505 9.17006 8.10255 7.75256 9.0913 6.76381C10.5088 5.34631 12.8188 5.34631 14.2451 6.76381C15.6626 8.17256 15.6626 10.4826 14.2451 11.9088C13.2563 12.8976 11.8388 13.2038 10.5876 12.8101Z" stroke="#757575" stroke-width="1.5" stroke-linecap="round" stroke-linejoin="round"/>
<path d="M9.14377 14.2451L8.40002 13.4926" stroke="#757575" stroke-width="1.5" stroke-linecap="round" stroke-linejoin="round"/>
<path d="M11.7202 9.36243H11.728" stroke="#757575" stroke-width="2" stroke-linecap="round" stroke-linejoin="round"/>
</svg>
