<svg width="19" height="19" viewBox="0 0 19 19" fill="none" xmlns="http://www.w3.org/2000/svg">
<path d="M4.75 7.91667V6.33333C4.75 3.71292 5.54167 1.58333 9.5 1.58333C13.4583 1.58333 14.25 3.71292 14.25 6.33333V7.91667" stroke="#097442" stroke-width="1.5" stroke-linecap="round" stroke-linejoin="round"/>
<path fill-rule="evenodd" clip-rule="evenodd" d="M9.49998 14.6458C8.40692 14.6458 7.52081 13.7597 7.52081 12.6667C7.52081 11.5736 8.40692 10.6875 9.49998 10.6875C10.593 10.6875 11.4791 11.5736 11.4791 12.6667C11.4791 13.7597 10.593 14.6458 9.49998 14.6458Z" stroke="#097442" stroke-width="1.5" stroke-linecap="round" stroke-linejoin="round"/>
<path d="M5.54165 17.4167C2.37498 17.4167 1.58331 16.625 1.58331 13.4583V11.875C1.58331 8.70833 2.37498 7.91667 5.54165 7.91667H13.4583C16.625 7.91667 17.4166 8.70833 17.4166 11.875V13.4583C17.4166 16.625 16.625 17.4167 13.4583 17.4167H5.54165Z" stroke="#097442" stroke-width="1.5" stroke-linecap="round" stroke-linejoin="round"/>
</svg>
