<svg width="21" height="21" viewBox="0 0 21 21" fill="none" xmlns="http://www.w3.org/2000/svg">
<path d="M10.5001 6.90369L9.5638 8.53119C9.3538 8.88994 9.5288 9.18744 9.94005 9.18744H11.0513C11.4713 9.18744 11.6376 9.48494 11.4276 9.84369L10.5001 11.4712" stroke="#757575" stroke-width="1.5" stroke-linecap="round" stroke-linejoin="round"/>
<path d="M7.26256 14.7699C5.25006 13.5537 3.59631 11.1824 3.59631 8.66241C3.59631 4.33116 7.57756 0.936159 12.0751 1.91616C14.0526 2.35366 15.7851 3.66616 16.6863 5.47741C18.5151 9.15241 16.5901 13.0549 13.7638 14.7612V15.7762C13.7638 16.0299 13.8601 16.6162 12.9238 16.6162H8.10256C7.14006 16.6249 7.26256 16.2487 7.26256 15.7849V14.7699Z" stroke="#757575" stroke-width="1.5" stroke-linecap="round" stroke-linejoin="round"/>
<path d="M7.4375 19.2499C9.44125 18.6812 11.5588 18.6812 13.5625 19.2499" stroke="#757575" stroke-width="1.5" stroke-linecap="round" stroke-linejoin="round"/>
</svg>
