<svg width="32" height="32" viewBox="0 0 32 32" fill="none" xmlns="http://www.w3.org/2000/svg">
<path d="M23.7734 17.1866C22.3334 19.32 20.0534 20.8266 17.4 21.2133C16.9467 21.2933 16.48 21.3333 16 21.3333C15.52 21.3333 15.0534 21.2933 14.6 21.2133C11.9467 20.8266 9.66669 19.32 8.22669 17.1866C7.24002 15.7066 6.66669 13.9333 6.66669 12C6.66669 6.83996 10.84 2.66663 16 2.66663C21.16 2.66663 25.3334 6.83996 25.3334 12C25.3334 13.9333 24.76 15.7066 23.7734 17.1866Z" stroke="white" stroke-width="1.5" stroke-linecap="round" stroke-linejoin="round"/>
<path d="M26.1333 25.1467C25.6399 25.2667 25.2533 25.6401 25.1466 26.1334L24.6799 28.0934C24.4266 29.1601 23.0666 29.4801 22.3599 28.6401L15.9999 21.3334L9.63994 28.6534C8.93328 29.4934 7.57328 29.1734 7.31994 28.1067L6.85328 26.1467C6.73328 25.6534 6.34661 25.2667 5.86661 25.1601L3.66661 24.6401C2.65328 24.4001 2.29328 23.1334 3.02661 22.4001L8.22661 17.2001C9.66661 19.3334 11.9466 20.8401 14.5999 21.2268C15.0533 21.3068 15.5199 21.3468 15.9999 21.3468C16.4799 21.3468 16.9466 21.3068 17.3999 21.2268C20.0533 20.8401 22.3333 19.3334 23.7733 17.2001L28.9733 22.4001C29.7066 23.1201 29.3466 24.3867 28.3333 24.6267L26.1333 25.1467Z" stroke="white" stroke-width="1.5" stroke-linecap="round" stroke-linejoin="round"/>
<path d="M17.56 9.5467C17.6667 9.76003 17.9467 9.97337 18.2 10.0134L19.6267 10.2534C20.5333 10.4 20.7467 11.0667 20.0933 11.72L18.9867 12.8267C18.8 13.0134 18.6933 13.3734 18.76 13.64L19.08 15.0134C19.3333 16.0934 18.76 16.52 17.8 15.9467L16.4667 15.16C16.2267 15.0134 15.8267 15.0134 15.5867 15.16L14.2533 15.9467C13.2933 16.5067 12.72 16.0934 12.9733 15.0134L13.2933 13.64C13.3467 13.3867 13.2533 13.0134 13.0667 12.8267L11.96 11.72C11.3067 11.0667 11.52 10.4134 12.4267 10.2534L13.8533 10.0134C14.0933 9.97337 14.3733 9.76003 14.48 9.5467L15.2667 7.97337C15.6533 7.12004 16.3467 7.12004 16.7733 7.97337L17.56 9.5467Z" stroke="white" stroke-width="1.5" stroke-linecap="round" stroke-linejoin="round"/>
</svg>
