<svg width="21" height="21" viewBox="0 0 21 21" fill="none" xmlns="http://www.w3.org/2000/svg">
<path d="M9.05627 11.5762V9.41496C9.05627 8.61871 9.70378 7.97119 10.5 7.97119C11.2963 7.97119 11.9438 8.61871 11.9438 9.41496V11.5762C11.9438 12.3724 11.2963 13.02 10.5 13.02C9.70378 13.02 9.05627 12.3724 9.05627 11.5762Z" stroke="#757575" stroke-width="1.5" stroke-linecap="round"/>
<path d="M14.8575 11.7862C14.6825 14.0437 12.7925 15.8112 10.5 15.8112C8.085 15.8112 6.125 13.8512 6.125 11.4362V9.56372C6.125 7.14872 8.085 5.18872 10.5 5.18872C12.7662 5.18872 14.63 6.91246 14.8488 9.11746" stroke="#757575" stroke-width="1.5" stroke-linecap="round"/>
<path d="M13.125 1.75H14.875C17.5 1.75 19.25 3.5 19.25 6.125V7.875" stroke="#757575" stroke-width="1.5" stroke-linecap="round" stroke-linejoin="round"/>
<path d="M1.75 7.875V6.125C1.75 3.5 3.5 1.75 6.125 1.75H7.875" stroke="#757575" stroke-width="1.5" stroke-linecap="round" stroke-linejoin="round"/>
<path d="M13.125 19.25H14.875C17.5 19.25 19.25 17.5 19.25 14.875V13.125" stroke="#757575" stroke-width="1.5" stroke-linecap="round" stroke-linejoin="round"/>
<path d="M1.75 13.125V14.875C1.75 17.5 3.5 19.25 6.125 19.25H7.875" stroke="#757575" stroke-width="1.5" stroke-linecap="round" stroke-linejoin="round"/>
</svg>
