<svg width="19" height="19" viewBox="0 0 19 19" fill="none" xmlns="http://www.w3.org/2000/svg">
<path d="M9.36546 8.60542C7.4813 8.54209 5.98505 6.99834 5.98505 5.09834C5.98505 3.15875 7.55255 1.58334 9.50005 1.58334C11.4396 1.58334 13.015 3.15875 13.015 5.09834C13.0071 6.99834 11.5109 8.54209 9.62671 8.60542C9.54755 8.5975 9.45255 8.5975 9.36546 8.60542Z" stroke="#0A7746" stroke-width="1.5" stroke-linecap="round" stroke-linejoin="round"/>
<path d="M5.66832 16.1737C7.8454 17.6304 11.4158 17.6304 13.5929 16.1737C15.5087 14.8912 15.5087 12.8012 13.5929 11.5267C11.4237 10.0779 7.85332 10.0779 5.66832 11.5267C3.75249 12.8092 3.75249 14.8992 5.66832 16.1737Z" stroke="#0A7746" stroke-width="1.5" stroke-linecap="round" stroke-linejoin="round"/>
</svg>
