<svg width="13" height="14" viewBox="0 0 13 14" fill="none" xmlns="http://www.w3.org/2000/svg">
<path d="M8.5244 11.8538L7.86431 13.8964L7.20423 11.8538C6.893 10.888 6.13572 10.1307 5.16994 9.8195L3.12732 9.15942L5.16994 8.49934C6.13572 8.1881 6.893 7.43083 7.20423 6.46505L7.86431 4.42242L8.5244 6.46505C8.83563 7.43083 9.5929 8.1881 10.5587 8.49934L12.6013 9.15942L10.5587 9.8195C9.5929 10.1307 8.83707 10.8881 8.5244 11.8538Z" fill="#BCA1CF"/>
<path d="M3.49576 6.44005L3.12753 7.58088L2.7593 6.44005C2.60364 5.95783 2.22435 5.57856 1.74216 5.4229L0.601318 5.05331L1.74216 4.68508C2.22438 4.52942 2.60365 4.15013 2.7593 3.66794L3.12753 2.5271L3.49576 3.66794C3.65142 4.15016 4.03071 4.52943 4.5129 4.68508L5.65374 5.05331L4.5129 5.42154C4.03068 5.57856 3.65277 5.95649 3.49576 6.44005Z" fill="#BCA1CF"/>
<path d="M6.82494 2.4647L6.60124 3.1581L6.37753 2.4647C6.27605 2.15066 6.03015 1.90476 5.71611 1.80328L5.02271 1.57957L5.71611 1.35586C6.03015 1.25438 6.27605 1.00848 6.37753 0.694443L6.60124 0.0010376L6.82494 0.694443C6.92643 1.00848 7.17233 1.25438 7.48637 1.35586L8.17977 1.57957L7.48637 1.80328C7.17233 1.90612 6.92643 2.15203 6.82494 2.4647Z" fill="#BCA1CF"/>
</svg>
