<svg width="32" height="32" viewBox="0 0 32 32" fill="none" xmlns="http://www.w3.org/2000/svg">
<path d="M5.37336 8.61338C2.80003 10.2934 2.80003 14.0534 5.37336 15.7334L13.4 20.9734C14.84 21.92 17.2134 21.92 18.6534 20.9734L26.64 15.7334C29.2 14.0534 29.2 10.3067 26.64 8.62671L18.6534 3.38671C17.2134 2.42671 14.84 2.42671 13.4 3.37338L5.37336 8.61338Z" stroke="#F2F2F2" stroke-width="1.5" stroke-linecap="round" stroke-linejoin="round"/>
<path d="M7.50668 17.4399L7.49335 23.6933C7.49335 25.3866 8.80001 27.1999 10.4 27.7333L14.6533 29.1466C15.3867 29.3866 16.6 29.3866 17.3467 29.1466L21.6 27.7333C23.2 27.1999 24.5067 25.3866 24.5067 23.6933V17.5066" stroke="#F2F2F2" stroke-width="1.5" stroke-linecap="round" stroke-linejoin="round"/>
<path d="M28.5333 20V12" stroke="#F2F2F2" stroke-width="1.5" stroke-linecap="round" stroke-linejoin="round"/>
</svg>
